Coordinates
version=1
nRows=60
nColumns=12
inDegrees=yes

Units are S.I. units (second, meters, Newtons, ...)
Angles are in degrees

endheader
time	SC_y	SC_z	SC_x	AC_y	AC_z	AC_x	GH_y	GH_z	GH_yy	EL_x	PS_y
       0.0              -54.39          35.89          78.76          38.13         -8.352          9.232          14.62         -17.67          87.92          61.44          35.08
   0.03932              -54.38          35.89          78.75          38.13         -8.354           9.23          14.64         -17.66          87.92          61.46          35.08
   0.07863              -54.38          35.89          78.74          38.14         -8.355          9.228          14.67         -17.65          87.91          61.47          35.08
    0.1179              -54.37          35.89          78.73          38.14         -8.357          9.225          14.69         -17.64           87.9          61.48          35.08
    0.1573              -54.36          35.89          78.72          38.14         -8.359          9.223          14.72         -17.63          87.88          61.49          35.07
    0.1966              -54.36          35.89           78.7          38.14         -8.361          9.221          14.75         -17.62          87.87          61.51          35.07
    0.2359              -54.35          35.89          78.69          38.15         -8.364          9.218          14.78         -17.61          87.86          61.52          35.07
    0.2752              -54.34          35.89          78.67          38.15         -8.366          9.215          14.81         -17.59          87.85          61.54          35.06
    0.3145              -54.34          35.89          78.65          38.16         -8.369          9.212          14.84         -17.58          87.83          61.56          35.06
    0.3538              -54.33          35.89          78.63          38.16         -8.372          9.209          14.88         -17.57          87.82          61.57          35.05
    0.3932              -54.32          35.88          78.61          38.16         -8.375          9.206          14.92         -17.55           87.8          61.59          35.05
    0.4325              -54.31          35.88          78.59          38.17         -8.378          9.202          14.96         -17.53          87.78          61.62          35.04
    0.4718               -54.3          35.88          78.57          38.17         -8.381          9.198          15.01         -17.51          87.76          61.64          35.04
    0.5111              -54.29          35.88          78.54          38.18         -8.385          9.194          15.06         -17.49          87.74          61.66          35.03
    0.5504              -54.27          35.88          78.51          38.18         -8.389          9.189          15.11         -17.47          87.72          61.69          35.03
    0.5897              -54.26          35.88          78.48          38.19         -8.394          9.184          15.17         -17.45          87.69          61.72          35.02
    0.6291              -54.24          35.88          78.45           38.2         -8.398          9.178          15.23         -17.42          87.67          61.75          35.01
    0.6684              -54.23          35.87          78.42          38.21         -8.404          9.172           15.3         -17.39          87.64          61.79           35.0
    0.7077              -54.21          35.87          78.38          38.21         -8.409          9.166          15.38         -17.36          87.61          61.82          34.99
     0.747              -54.19          35.87          78.34          38.22         -8.416          9.159          15.46         -17.33          87.57          61.87          34.98
    0.7863              -54.17          35.87          78.29          38.23         -8.423          9.151          15.55         -17.29          87.53          61.91          34.97
    0.8256              -54.15          35.86          78.24          38.24          -8.43          9.142          15.65         -17.25          87.49          61.96          34.96
    0.8649              -54.12          35.86          78.18          38.26         -8.439          9.132          15.76          -17.2          87.45          62.02          34.95
    0.9043              -54.09          35.86          78.12          38.27         -8.448          9.122          15.89         -17.15           87.4          62.08          34.93
    0.9436              -54.06          35.85          78.05          38.28         -8.458           9.11          16.02          -17.1          87.34          62.15          34.92
    0.9829              -54.03          35.85          77.97           38.3          -8.47          9.097          16.17         -17.03          87.27          62.22           34.9
     1.022              -53.99          35.84          77.89          38.32         -8.483          9.082          16.34         -16.96           87.2          62.31          34.88
     1.062              -53.94          35.84          77.79          38.34         -8.497          9.065          16.53         -16.88          87.12           62.4          34.86
     1.101              -53.89          35.83          77.68          38.36         -8.514          9.047          16.75          -16.8          87.03          62.51          34.83
      1.14              -53.83          35.82          77.55          38.39         -8.532          9.025           17.0         -16.69          86.93          62.63           34.8
     1.179              -53.77          35.82          77.41          38.42         -8.553          9.001          17.28         -16.58          86.81          62.78          34.77
     1.219              -53.69          35.81          77.25          38.46         -8.578          8.973           17.6         -16.45          86.68          62.94          34.73
     1.258              -53.61           35.8          77.06           38.5         -8.606          8.941          17.97         -16.29          86.52          63.12          34.68
     1.297              -53.51          35.78          76.84          38.54         -8.639          8.903           18.4         -16.12          86.34          63.34          34.63
     1.337              -53.39          35.77          76.58           38.6         -8.677          8.859           18.9         -15.91          86.13          63.59          34.57
     1.376              -53.25          35.75          76.28          38.66         -8.722          8.808           19.5         -15.66          85.88          63.89           34.5
     1.415              -53.09          35.73          75.92          38.74         -8.776          8.746          20.21         -15.37          85.59          64.24          34.42
     1.455              -52.89          35.71          75.48          38.83          -8.84          8.673          21.05         -15.02          85.23          64.67          34.32
     1.494              -52.65          35.68          74.96          38.94         -8.918          8.584          22.08          -14.6           84.8          65.18          34.19
     1.533              -52.36          35.64          74.32          39.08         -9.013          8.475          23.33         -14.09          84.28          65.81          34.04
     1.573               -52.0           35.6          73.53          39.25          -9.13          8.341          24.87         -13.45          83.63          66.58          33.86
     1.612              -51.55          35.54          72.55          39.46         -9.277          8.173           26.8         -12.66          82.83          67.55          33.63
     1.651              -50.98          35.47          71.31          39.72         -9.461          7.962          29.23         -11.66          81.81          68.76          33.34
     1.691              -50.27          35.38          69.74          40.06         -9.695          7.694          32.31         -10.39          80.52          70.31          32.97
      1.73              -49.34          35.27          67.72          40.49         -9.995          7.351          36.26         -8.763          78.87          72.29           32.5
     1.769              -48.16          35.12          65.14          41.04         -10.38          6.911          41.33         -6.676          76.74          74.83          31.89
     1.809              -46.66          34.93          61.83          41.75         -10.87          6.348          47.81         -4.011          74.03          78.07          31.12
     1.848              -44.76           34.7          57.68          42.64         -11.49          5.641          55.95        -0.6602          70.63          82.15          30.14
     1.887              -42.45          34.41          52.62          43.72         -12.24          4.779          65.87          3.423          66.47          87.13          28.96
     1.926              -39.77          34.08          46.75          44.97         -13.12          3.779          77.37          8.157          61.66          92.89          27.58
     1.966              -36.87          33.72           40.4          46.33         -14.06          2.698          89.82          13.28          56.45          99.13           26.1
     2.005              -33.97          33.36          34.04          47.69         -15.01          1.616          102.3          18.41          51.24          105.4          24.61
     2.044              -31.29          33.02          28.17          48.94         -15.88         0.6165          113.8          23.14          46.42          111.1          23.23
     2.084              -28.98          32.73          23.11          50.02         -16.63        -0.2455          123.7          27.22          42.27          116.1          22.05
     2.123              -27.08           32.5          18.96          50.91         -17.25        -0.9529          131.8          30.58          38.86          120.2          21.08
     2.162              -25.57          32.31          15.66          51.62         -17.74         -1.515          138.3          33.24          36.15          123.4           20.3
     2.202              -24.39          32.16          13.07          52.17         -18.13         -1.956          143.4          35.33          34.03          126.0           19.7
     2.241              -23.47          32.05          11.05           52.6         -18.43         -2.299          147.3          36.95          32.38          127.9          19.22
      2.28              -22.75          31.96          9.479          52.94         -18.66         -2.567          150.4          38.22          31.09          129.5          18.85
      2.32              -22.19          31.89          8.241           53.2         -18.85         -2.778          152.8          39.22          30.07          130.7          18.56
